<svg role="img" width="32" height="32" fill="#00A4EF" viewBox="0 0 50 50" xmlns="http://www.w3.org/2000/svg"><title>Microsoft MVP</title><path d="M17.42,26.16a15.14,15.14,0,0,0-.22,1.59l-.07.48h0a14.16,14.16,0,0,0-.33-2l-1.82-7.89h-3.5v13h2.07V24.43c0-1.18,0-2.39-.09-3.61h.08l.35,2.3,2,8.19h2.28L20,23c.18-.9.31-1.63.39-2.18h.05q-.09,2-.09,2.94v7.55h2.14v-13H19.13Zm18.36.72h1a3.81,3.81,0,0,0,3-1.24,4.54,4.54,0,0,0,1.14-3.17,4.23,4.23,0,0,0-1-3.08A3.81,3.81,0,0,0,37,18.34H33.29v13h2.49Zm0-6.37h.83a1.62,1.62,0,0,1,1.25.52,2.25,2.25,0,0,1,.48,1.57c0,1.42-.57,2.13-1.7,2.13h-.86Zm-9.24,10.8h2.67l3.31-13H30l-1.8,8.5c-.09.47-.15.92-.19,1.34l-.05.35h-.06a12,12,0,0,0-.2-1.65l-1.8-8.54H23.32ZM25.26,46.75,3.75,25.24,25.24,3.75,46.75,25.26Z"/></svg>